<?xml version="1.0" encoding="UTF-8" standalone="no"?>
<!DOCTYPE svg PUBLIC "-//W3C//DTD SVG 1.1//EN"
 "http://www.w3.org/Graphics/SVG/1.1/DTD/svg11.dtd">
<!-- Generated by graphviz version 12.1.2 (20240928.0832)
 -->
<!-- Title: sdd Pages: 1 -->
<svg width="142pt" height="236pt"
 viewBox="0.00 0.00 141.50 236.30" xmlns="http://www.w3.org/2000/svg" xmlns:xlink="http://www.w3.org/1999/xlink">
<g id="graph0" class="graph" transform="scale(1 1) rotate(0) translate(4 232.3)">
<title>sdd</title>
<!-- 16150339111209220049 -->
<g id="node1" class="node">
<title>16150339111209220049</title>
<polygon fill="none" stroke="black" points="25.38,-132.65 25.38,-157.15 67.12,-157.15 67.12,-132.65 25.38,-132.65"/>
<text text-anchor="middle" x="36.38" y="-139.85" font-family="Times,serif" font-size="14.00">a</text>
<polyline fill="none" stroke="black" points="47.38,-132.65 47.38,-157.15"/>
<text text-anchor="middle" x="57.25" y="-139.85" font-family="Times,serif" font-size="14.00"> </text>
</g>
<!-- 1557347335308955999 -->
<g id="node6" class="node">
<title>1557347335308955999</title>
<ellipse fill="none" stroke="black" cx="57.25" cy="-78.82" rx="17.32" ry="17.32"/>
<text text-anchor="start" x="53.88" y="-73.77" font-family="Times,serif" font-size="14.00">3</text>
</g>
<!-- 16150339111209220049&#45;&gt;1557347335308955999 -->
<g id="edge1" class="edge">
<title>16150339111209220049:f1&#45;&gt;1557347335308955999</title>
<path fill="none" stroke="black" d="M57.25,-132.15C57.25,-122.5 57.25,-111.85 57.25,-102.69"/>
<polygon fill="black" stroke="black" points="59,-102.83 57.25,-97.83 55.5,-102.83 59,-102.83"/>
</g>
<!-- 4531663012077962072 -->
<g id="node2" class="node">
<title>4531663012077962072</title>
<polygon fill="none" stroke="black" points="85,-132.65 85,-157.15 133.5,-157.15 133.5,-132.65 85,-132.65"/>
<text text-anchor="middle" x="98.25" y="-139.85" font-family="Times,serif" font-size="14.00">!a</text>
<polyline fill="none" stroke="black" points="111.5,-132.65 111.5,-157.15"/>
<text text-anchor="middle" x="122.5" y="-139.85" font-family="Times,serif" font-size="14.00">c</text>
</g>
<!-- 15842042649049567314 -->
<g id="node3" class="node">
<title>15842042649049567314</title>
<ellipse fill="none" stroke="black" cx="77.25" cy="-210.97" rx="17.32" ry="17.32"/>
<text text-anchor="start" x="73.88" y="-205.92" font-family="Times,serif" font-size="14.00">1</text>
</g>
<!-- 15842042649049567314&#45;&gt;16150339111209220049 -->
<g id="edge2" class="edge">
<title>15842042649049567314&#45;&gt;16150339111209220049</title>
<path fill="none" stroke="black" d="M69.9,-194.79C65.34,-185.35 59.45,-173.18 54.69,-163.35"/>
<polygon fill="black" stroke="black" points="56.31,-162.67 52.56,-158.93 53.16,-164.19 56.31,-162.67"/>
</g>
<!-- 15842042649049567314&#45;&gt;4531663012077962072 -->
<g id="edge3" class="edge">
<title>15842042649049567314&#45;&gt;4531663012077962072</title>
<path fill="none" stroke="black" d="M84.67,-195.11C89.49,-185.47 95.77,-172.88 100.78,-162.85"/>
<polygon fill="black" stroke="black" points="102.22,-163.89 102.89,-158.63 99.09,-162.32 102.22,-163.89"/>
</g>
<!-- 2308170335133184780 -->
<g id="node4" class="node">
<title>2308170335133184780</title>
<polygon fill="none" stroke="black" points="0,-0.5 0,-25 48.5,-25 48.5,-0.5 0,-0.5"/>
<text text-anchor="middle" x="11" y="-7.7" font-family="Times,serif" font-size="14.00">c</text>
<polyline fill="none" stroke="black" points="22,-0.5 22,-25"/>
<text text-anchor="middle" x="35.25" y="-6.2" font-family="Times,serif" font-size="14.00">⊤</text>
</g>
<!-- 666306884212457887 -->
<g id="node5" class="node">
<title>666306884212457887</title>
<polygon fill="none" stroke="black" points="66.62,-0.5 66.62,-25 115.88,-25 115.88,-0.5 66.62,-0.5"/>
<text text-anchor="middle" x="79.88" y="-7.7" font-family="Times,serif" font-size="14.00">!c</text>
<polyline fill="none" stroke="black" points="93.12,-0.5 93.12,-25"/>
<text text-anchor="middle" x="104.5" y="-7.7" font-family="Times,serif" font-size="14.00">b</text>
</g>
<!-- 1557347335308955999&#45;&gt;2308170335133184780 -->
<g id="edge4" class="edge">
<title>1557347335308955999&#45;&gt;2308170335133184780</title>
<path fill="none" stroke="black" d="M49.6,-62.96C44.63,-53.32 38.15,-40.73 32.98,-30.7"/>
<polygon fill="black" stroke="black" points="34.65,-30.12 30.8,-26.48 31.54,-31.72 34.65,-30.12"/>
</g>
<!-- 1557347335308955999&#45;&gt;666306884212457887 -->
<g id="edge5" class="edge">
<title>1557347335308955999&#45;&gt;666306884212457887</title>
<path fill="none" stroke="black" d="M65.14,-62.96C70.25,-53.32 76.93,-40.73 82.26,-30.7"/>
<polygon fill="black" stroke="black" points="83.7,-31.71 84.5,-26.47 80.61,-30.06 83.7,-31.71"/>
</g>
</g>
</svg>
